{
 "cells": [
  {
   "attachments": {},
   "cell_type": "markdown",
   "metadata": {},
   "source": [
    "<h1>Deep Encode Group 2 Lableing</h1>\n",
    "\n",
    "labeling pipeline:\n",
    "1. define minimum vmaf score\n",
    "\n",
    "2. obtain meta info of video and store in some useful format\n",
    "\n",
    "3. split into scenes (nominally mp4, but actually y4m)\n",
    "\n",
    "4. rename to y4m\n",
    "\n",
    "5. **compress**\n",
    "\n",
    "6. **calc vmaf compared to original scene**\n",
    "\n",
    "**bold**: repeat until acceptable, subject to compression strategy\n"
   ]
  },
  {
   "cell_type": "code",
   "execution_count": 51,
   "metadata": {},
   "outputs": [],
   "source": [
    "import os\n",
    "import subprocess\n",
    "import pandas as pd\n",
    "import numpy as np\n",
    "import re\n",
    "import math\n"
   ]
  },
  {
   "cell_type": "code",
   "execution_count": 49,
   "metadata": {},
   "outputs": [],
   "source": [
    "### PARAMETERS ###\n",
    "\n",
    "# define minimum acceptable vmaf\n",
    "minimum_acceptable_vmaf = 98.0\n",
    "\n",
    "# bitrates from 1 to 64 MB/s possible\n",
    "bitrate_candidates = np.array(range(1, 65))\n",
    "\n",
    "\n",
    "### LOCATIONS ###\n",
    "\n",
    "# relative path to input video\n",
    "input_vid_loc='_testing/factory_1080p30.y4m'\n",
    "\n",
    "# relative path to split uncompressed scenes\n",
    "orig_scenes_loc='_testing/orig_scenes'\n",
    "\n",
    "\n",
    "### INPUT VIDEO META DATA ###\n",
    "\n",
    "input_vid_res = '1920x1080'\n",
    "\n",
    "input_vid_fps = '30'\n",
    "\n",
    "input_vid_pix_fmt = 'yuv420p'"
   ]
  },
  {
   "cell_type": "code",
   "execution_count": 47,
   "metadata": {},
   "outputs": [],
   "source": [
    "# HELPER METHODS\n",
    "\n",
    "def extract_vmaf(result_string):\n",
    "    # Extract the number using regex\n",
    "    match = re.search(r\"VMAF score: (\\d+\\.\\d+)\", result_string)\n",
    "\n",
    "    # Check if a match is found and get the number\n",
    "    if match:\n",
    "        vmaf_score = float(match.group(1))\n",
    "        return vmaf_score \n",
    "    else:\n",
    "        print(\"VMAF score not found in the string\")\n",
    "\n",
    "def delete_encode(path):\n",
    "    if os.path.isfile(path):\n",
    "        # Delete the file\n",
    "        os.remove(path)\n",
    "        print(f\"The file at {path} has been deleted.\")\n",
    "    else:\n",
    "        print(f\"No file found at {path}.\")"
   ]
  },
  {
   "cell_type": "code",
   "execution_count": 4,
   "metadata": {
    "vscode": {
     "languageId": "shellscript"
    }
   },
   "outputs": [
    {
     "name": "stdout",
     "output_type": "stream",
     "text": [
      "[STREAM]\n",
      "index=0\n",
      "codec_name=rawvideo\n",
      "codec_long_name=raw video\n",
      "profile=unknown\n",
      "codec_type=video\n",
      "codec_tag_string=I420\n",
      "codec_tag=0x30323449\n",
      "width=1920\n",
      "height=1080\n",
      "coded_width=1920\n",
      "coded_height=1080\n",
      "closed_captions=0\n",
      "film_grain=0\n",
      "has_b_frames=0\n",
      "sample_aspect_ratio=1:1\n",
      "display_aspect_ratio=16:9\n",
      "pix_fmt=yuv420p\n",
      "level=-99\n",
      "color_range=unknown\n",
      "color_space=unknown\n",
      "color_transfer=unknown\n",
      "color_primaries=unknown\n",
      "chroma_location=unspecified\n",
      "field_order=progressive\n",
      "refs=1\n",
      "id=N/A\n",
      "r_frame_rate=30/1\n",
      "avg_frame_rate=30/1\n",
      "time_base=1/30\n",
      "start_pts=0\n",
      "start_time=0.000000\n",
      "duration_ts=1339\n",
      "duration=44.633333\n",
      "bit_rate=N/A\n",
      "max_bit_rate=N/A\n",
      "bits_per_raw_sample=N/A\n",
      "nb_frames=N/A\n",
      "nb_read_frames=N/A\n",
      "nb_read_packets=N/A\n",
      "DISPOSITION:default=0\n",
      "DISPOSITION:dub=0\n",
      "DISPOSITION:original=0\n",
      "DISPOSITION:comment=0\n",
      "DISPOSITION:lyrics=0\n",
      "DISPOSITION:karaoke=0\n",
      "DISPOSITION:forced=0\n",
      "DISPOSITION:hearing_impaired=0\n",
      "DISPOSITION:visual_impaired=0\n",
      "DISPOSITION:clean_effects=0\n",
      "DISPOSITION:attached_pic=0\n",
      "DISPOSITION:timed_thumbnails=0\n",
      "DISPOSITION:captions=0\n",
      "DISPOSITION:descriptions=0\n",
      "DISPOSITION:metadata=0\n",
      "DISPOSITION:dependent=0\n",
      "DISPOSITION:still_image=0\n",
      "[/STREAM]\n"
     ]
    }
   ],
   "source": [
    "! ffprobe -v error -show_streams {input_vid_loc}"
   ]
  },
  {
   "cell_type": "code",
   "execution_count": 7,
   "metadata": {
    "vscode": {
     "languageId": "shellscript"
    }
   },
   "outputs": [
    {
     "name": "stdout",
     "output_type": "stream",
     "text": [
      "[PySceneDetect] PySceneDetect v0.6.1\n",
      "[PySceneDetect] Output directory set:\n",
      "  /Users/leon/Desktop/uni/23ss/awt/code/Deep-Encode-TUB/labeling/_testing/orig_scenes\n",
      "[PySceneDetect] ffmpeg arguments: -map 0 -c:v copy -c:a copy -f rawvideo -vcodec rawvideo\n",
      "[PySceneDetect] Downscale factor set to 7, effective resolution: 274 x 154\n",
      "[PySceneDetect] Detecting scenes...                                             \n",
      "Detected: 18 | Progress: 100%|█████████| 1339/1339 [00:03<00:00, 344.08frames/s]\n",
      "[PySceneDetect] Processed 1339 frames in 3.9 seconds (average 341.65 FPS).\n",
      "[PySceneDetect] Detected 19 scenes, average shot length 2.3 seconds.\n",
      "[PySceneDetect] Comma-separated timecode list:\n",
      "  00:00:03.567,00:00:09.133,00:00:09.733,00:00:10.333,00:00:11.100,00:00:11.700,00:00:15.500,00:00:17.167,00:00:17.900,00:00:18.500,00:00:19.100,00:00:21.667,00:00:23.033,00:00:23.800,00:00:24.400,00:00:28.367,00:00:34.100,00:00:39.167\n",
      "[PySceneDetect] Splitting input video using ffmpeg, output path template:\n",
      "  /Users/leon/Desktop/uni/23ss/awt/code/Deep-Encode-TUB/labeling/_testing/orig_scenes/$VIDEO_NAME-Scene-$SCENE_NUMBER.mp4\n",
      "  0%|                                               | 0/1338 [00:00<?, ?frame/s]ffmpeg version 6.0 Copyright (c) 2000-2023 the FFmpeg developers\n",
      "  built with Apple clang version 14.0.3 (clang-1403.0.22.14.1)\n",
      "  configuration: --prefix=/usr/local/Cellar/ffmpeg/6.0 --enable-shared --enable-pthreads --enable-version3 --cc=clang --host-cflags= --host-ldflags= --enable-ffplay --enable-gnutls --enable-gpl --enable-libaom --enable-libaribb24 --enable-libbluray --enable-libdav1d --enable-libmp3lame --enable-libopus --enable-librav1e --enable-librist --enable-librubberband --enable-libsnappy --enable-libsrt --enable-libsvtav1 --enable-libtesseract --enable-libtheora --enable-libvidstab --enable-libvmaf --enable-libvorbis --enable-libvpx --enable-libwebp --enable-libx264 --enable-libx265 --enable-libxml2 --enable-libxvid --enable-lzma --enable-libfontconfig --enable-libfreetype --enable-frei0r --enable-libass --enable-libopencore-amrnb --enable-libopencore-amrwb --enable-libopenjpeg --enable-libspeex --enable-libsoxr --enable-libzmq --enable-libzimg --disable-libjack --disable-indev=jack --enable-videotoolbox\n",
      "  libavutil      58.  2.100 / 58.  2.100\n",
      "  libavcodec     60.  3.100 / 60.  3.100\n",
      "  libavformat    60.  3.100 / 60.  3.100\n",
      "  libavdevice    60.  1.100 / 60.  1.100\n",
      "  libavfilter     9.  3.100 /  9.  3.100\n",
      "  libswscale      7.  1.100 /  7.  1.100\n",
      "  libswresample   4. 10.100 /  4. 10.100\n",
      "  libpostproc    57.  1.100 / 57.  1.100\n",
      "Input #0, yuv4mpegpipe, from '_testing/factory_1080p30.y4m':\n",
      "  Duration: 00:00:44.63, start: 0.000000, bitrate: 746497 kb/s\n",
      "  Stream #0:0: Video: rawvideo (I420 / 0x30323449), yuv420p(progressive), 1920x1080, SAR 1:1 DAR 16:9, 30 fps, 30 tbr, 30 tbn\n",
      "\u001b[0;33mMultiple -c, -codec, -acodec, -vcodec, -scodec or -dcodec options specified for stream 0, only the last option '-c:v rawvideo' will be used.\n",
      "\u001b[0mStream mapping:\n",
      "  Stream #0:0 -> #0:0 (rawvideo (native) -> rawvideo (native))\n",
      "Output #0, rawvideo, to '/Users/leon/Desktop/uni/23ss/awt/code/Deep-Encode-TUB/labeling/_testing/orig_scenes/factory_1080p30-Scene-001.mp4':\n",
      "  Metadata:\n",
      "    encoder         : Lavf60.3.100\n",
      "  Stream #0:0: Video: rawvideo (I420 / 0x30323449), yuv420p(progressive), 1920x1080 [SAR 1:1 DAR 16:9], q=2-31, 746496 kb/s, 30 fps, 30 tbn\n",
      "    Metadata:\n",
      "      encoder         : Lavc60.3.100 rawvideo\n",
      "frame=  107 fps=0.0 q=-0.0 Lsize=  325012kB time=00:00:03.53 bitrate=753538.5kbits/s speed=13.2x    \n",
      "video:325012kB audio:0kB subtitle:0kB other streams:0kB global headers:0kB muxing overhead: 0.000000%\n",
      "[PySceneDetect] Output from ffmpeg for Scene 1 shown above, splitting remaining scenes...\n",
      "100%|███████████████████████████████████| 1338/1338 [00:06<00:00, 208.30frame/s]\n",
      "[PySceneDetect] Average processing speed 208.30 frames/sec.\n",
      "[PySceneDetect] Video splitting completed, individual scenes written to disk.\n"
     ]
    }
   ],
   "source": [
    "# split scenes bases on content detection\n",
    "# in this command no additional info about the input video is provided\n",
    "\n",
    "! scenedetect -i {input_vid_loc} -o {orig_scenes_loc} detect-content split-video -a \"-map 0 -c:v copy -c:a copy -f rawvideo -vcodec rawvideo\""
   ]
  },
  {
   "cell_type": "code",
   "execution_count": 8,
   "metadata": {},
   "outputs": [
    {
     "name": "stdout",
     "output_type": "stream",
     "text": [
      "Renamed factory_1080p30-Scene-013.mp4 to factory_1080p30-Scene-013.y4m\n",
      "Renamed factory_1080p30-Scene-007.mp4 to factory_1080p30-Scene-007.y4m\n",
      "Renamed factory_1080p30-Scene-006.mp4 to factory_1080p30-Scene-006.y4m\n",
      "Renamed factory_1080p30-Scene-012.mp4 to factory_1080p30-Scene-012.y4m\n",
      "Renamed factory_1080p30-Scene-004.mp4 to factory_1080p30-Scene-004.y4m\n",
      "Renamed factory_1080p30-Scene-010.mp4 to factory_1080p30-Scene-010.y4m\n",
      "Renamed factory_1080p30-Scene-011.mp4 to factory_1080p30-Scene-011.y4m\n",
      "Renamed factory_1080p30-Scene-005.mp4 to factory_1080p30-Scene-005.y4m\n",
      "Renamed factory_1080p30-Scene-001.mp4 to factory_1080p30-Scene-001.y4m\n",
      "Renamed factory_1080p30-Scene-015.mp4 to factory_1080p30-Scene-015.y4m\n",
      "Renamed factory_1080p30-Scene-014.mp4 to factory_1080p30-Scene-014.y4m\n",
      "Renamed factory_1080p30-Scene-016.mp4 to factory_1080p30-Scene-016.y4m\n",
      "Renamed factory_1080p30-Scene-002.mp4 to factory_1080p30-Scene-002.y4m\n",
      "Renamed factory_1080p30-Scene-003.mp4 to factory_1080p30-Scene-003.y4m\n",
      "Renamed factory_1080p30-Scene-017.mp4 to factory_1080p30-Scene-017.y4m\n",
      "Renamed factory_1080p30-Scene-019.mp4 to factory_1080p30-Scene-019.y4m\n",
      "Renamed factory_1080p30-Scene-018.mp4 to factory_1080p30-Scene-018.y4m\n",
      "Renamed factory_1080p30-Scene-008.mp4 to factory_1080p30-Scene-008.y4m\n",
      "Renamed factory_1080p30-Scene-009.mp4 to factory_1080p30-Scene-009.y4m\n"
     ]
    }
   ],
   "source": [
    "# rename to y4m to correctly refelct data format\n",
    "\n",
    "def change_file_suffix(directory):\n",
    "    for filename in os.listdir(directory):\n",
    "        if filename.endswith('.mp4'):\n",
    "            new_filename = os.path.splitext(filename)[0] + '.y4m'\n",
    "            old_path = os.path.join(directory, filename)\n",
    "            new_path = os.path.join(directory, new_filename)\n",
    "            os.rename(old_path, new_path)\n",
    "            print(f'Renamed {filename} to {new_filename}')\n",
    "\n",
    "change_file_suffix(orig_scenes_loc)\n"
   ]
  },
  {
   "attachments": {},
   "cell_type": "markdown",
   "metadata": {},
   "source": [
    "<h2>Encoding strategy:</h2>\n",
    "\n",
    "We use ffmpeg's libx264 at preset medium (default).\n",
    "\n",
    "Rate Control Mode is **Two Pass average bitrate (ABR)** -b:v, which results in a guaranteed average bitrate over the scene. At the same time the encoder is still able to adapt to different 'complexities' within the scene. Results are same as in 'capped CRF'(see: https://slhck.info/video/2017/03/01/rate-control.html). We will not set -maxrate or -bufsize in this mode.\n",
    "\n",
    "(Note, bc otherwise you will get confused:  -maxrate in combination with crf means the maximum bitrate of the entire video that is acceptable.\n",
    "-maxrate in association with -b:v is the maximum acceptale \"abweichung\" from average bitrate!)\n",
    "\n",
    "~~We aim for an encoing that at highest settings encodes at \"-crf 17\". This constant rate factor is also recommended (by https://trac.ffmpeg.org/wiki/Encode/H.264) for visually lossless compression at highest compression rate.~~\n",
    "\n",
    "~~This constant rate factor (crf), however, will be limited by \"-maxrate\" which specifies a maximum bitrate. (We will set bufsize to maxrate*2). According to documentation (link above), this setting does not strictly guarantee maxrate as bitrate, but we found it still complying pretty well, while still always aiming for an optimal result.~~\n"
   ]
  },
  {
   "cell_type": "code",
   "execution_count": 52,
   "metadata": {},
   "outputs": [
    {
     "name": "stdout",
     "output_type": "stream",
     "text": [
      "QP0 RESULT:  CompletedProcess(args='ffmpeg -v error -f rawvideo -vcodec rawvideo -s 1920x1080 -r 30 -pix_fmt yuv420p -i _testing/orig_scenes/factory_1080p30-Scene-019.y4m -c:v libx264 -qp 0 _testing/orig_scenes/factory_1080p30-Scene-019/qp0_factory_1080p30-Scene-019.mp4', returncode=0, stdout='', stderr='')\n",
      "CURRENT BITRATE: 32\n",
      "ENCODE RESULT:  CompletedProcess(args='ffmpeg -v error -f rawvideo -vcodec rawvideo -s 1920x1080 -r 30 -pix_fmt yuv420p -i _testing/orig_scenes/factory_1080p30-Scene-019.y4m -c:v libx264 -b:v 32M -pass 1 -f null /dev/null &&                                    ffmpeg -v error -f rawvideo -vcodec rawvideo -s 1920x1080 -r 30 -pix_fmt yuv420p -i _testing/orig_scenes/factory_1080p30-Scene-019.y4m -c:v libx264 -b:v 32M -pass 2 _testing/orig_scenes/factory_1080p30-Scene-019/32M_factory_1080p30-Scene-019.mp4', returncode=0, stdout='', stderr='')\n",
      "VMAF RESULT:  CompletedProcess(args='ffmpeg -i _testing/orig_scenes/factory_1080p30-Scene-019/32M_factory_1080p30-Scene-019.mp4 -i _testing/orig_scenes/factory_1080p30-Scene-019/qp0_factory_1080p30-Scene-019.mp4 -filter_complex libvmaf -f null -', returncode=0, stdout='', stderr=\"ffmpeg version 6.0 Copyright (c) 2000-2023 the FFmpeg developers\\n  built with Apple clang version 14.0.3 (clang-1403.0.22.14.1)\\n  configuration: --prefix=/usr/local/Cellar/ffmpeg/6.0 --enable-shared --enable-pthreads --enable-version3 --cc=clang --host-cflags= --host-ldflags= --enable-ffplay --enable-gnutls --enable-gpl --enable-libaom --enable-libaribb24 --enable-libbluray --enable-libdav1d --enable-libmp3lame --enable-libopus --enable-librav1e --enable-librist --enable-librubberband --enable-libsnappy --enable-libsrt --enable-libsvtav1 --enable-libtesseract --enable-libtheora --enable-libvidstab --enable-libvmaf --enable-libvorbis --enable-libvpx --enable-libwebp --enable-libx264 --enable-libx265 --enable-libxml2 --enable-libxvid --enable-lzma --enable-libfontconfig --enable-libfreetype --enable-frei0r --enable-libass --enable-libopencore-amrnb --enable-libopencore-amrwb --enable-libopenjpeg --enable-libspeex --enable-libsoxr --enable-libzmq --enable-libzimg --disable-libjack --disable-indev=jack --enable-videotoolbox\\n  libavutil      58.  2.100 / 58.  2.100\\n  libavcodec     60.  3.100 / 60.  3.100\\n  libavformat    60.  3.100 / 60.  3.100\\n  libavdevice    60.  1.100 / 60.  1.100\\n  libavfilter     9.  3.100 /  9.  3.100\\n  libswscale      7.  1.100 /  7.  1.100\\n  libswresample   4. 10.100 /  4. 10.100\\n  libpostproc    57.  1.100 / 57.  1.100\\nInput #0, mov,mp4,m4a,3gp,3g2,mj2, from '_testing/orig_scenes/factory_1080p30-Scene-019/32M_factory_1080p30-Scene-019.mp4':\\n  Metadata:\\n    major_brand     : isom\\n    minor_version   : 512\\n    compatible_brands: isomiso2avc1mp41\\n    encoder         : Lavf60.3.100\\n  Duration: 00:00:05.43, start: 0.000000, bitrate: 32246 kb/s\\n  Stream #0:0[0x1](und): Video: h264 (High) (avc1 / 0x31637661), yuv420p(progressive), 1920x1080, 32241 kb/s, 30 fps, 30 tbr, 15360 tbn (default)\\n    Metadata:\\n      handler_name    : VideoHandler\\n      vendor_id       : [0][0][0][0]\\n      encoder         : Lavc60.3.100 libx264\\nInput #1, mov,mp4,m4a,3gp,3g2,mj2, from '_testing/orig_scenes/factory_1080p30-Scene-019/qp0_factory_1080p30-Scene-019.mp4':\\n  Metadata:\\n    major_brand     : isom\\n    minor_version   : 512\\n    compatible_brands: isomiso2avc1mp41\\n    encoder         : Lavf60.3.100\\n  Duration: 00:00:05.43, start: 0.000000, bitrate: 85825 kb/s\\n  Stream #1:0[0x1](und): Video: h264 (High 4:4:4 Predictive) (avc1 / 0x31637661), yuv420p(progressive), 1920x1080, 85822 kb/s, 30 fps, 30 tbr, 15360 tbn (default)\\n    Metadata:\\n      handler_name    : VideoHandler\\n      vendor_id       : [0][0][0][0]\\n      encoder         : Lavc60.3.100 libx264\\nStream mapping:\\n  Stream #0:0 (h264) -> libvmaf\\n  Stream #1:0 (h264) -> libvmaf\\n  libvmaf:default -> Stream #0:0 (wrapped_avframe)\\nPress [q] to stop, [?] for help\\nOutput #0, null, to 'pipe:':\\n  Metadata:\\n    major_brand     : isom\\n    minor_version   : 512\\n    compatible_brands: isomiso2avc1mp41\\n    encoder         : Lavf60.3.100\\n  Stream #0:0: Video: wrapped_avframe, yuv420p(progressive), 1920x1080, q=2-31, 200 kb/s, 30 fps, 30 tbn\\n    Metadata:\\n      encoder         : Lavc60.3.100 wrapped_avframe\\nframe=    0 fps=0.0 q=-0.0 size=       0kB time=00:00:00.00 bitrate=N/A speed=   0x    \\nframe=    3 fps=0.0 q=-0.0 size=N/A time=00:00:00.06 bitrate=N/A speed=0.106x    \\nframe=    7 fps=6.0 q=-0.0 size=N/A time=00:00:00.20 bitrate=N/A speed=0.171x    \\nframe=   11 fps=6.5 q=-0.0 size=N/A time=00:00:00.33 bitrate=N/A speed=0.197x    \\nframe=   15 fps=6.8 q=-0.0 size=N/A time=00:00:00.46 bitrate=N/A speed=0.212x    \\nframe=   20 fps=7.1 q=-0.0 size=N/A time=00:00:00.63 bitrate=N/A speed=0.224x    \\nframe=   25 fps=7.3 q=-0.0 size=N/A time=00:00:00.80 bitrate=N/A speed=0.232x    \\nframe=   29 fps=7.2 q=-0.0 size=N/A time=00:00:00.96 bitrate=N/A speed=0.24x    \\nframe=   34 fps=7.4 q=-0.0 size=N/A time=00:00:01.10 bitrate=N/A speed=0.239x    \\nframe=   39 fps=7.5 q=-0.0 size=N/A time=00:00:01.26 bitrate=N/A speed=0.244x    \\nframe=   44 fps=7.6 q=-0.0 size=N/A time=00:00:01.43 bitrate=N/A speed=0.249x    \\nframe=   49 fps=7.7 q=-0.0 size=N/A time=00:00:01.60 bitrate=N/A speed=0.252x    \\nframe=   54 fps=7.8 q=-0.0 size=N/A time=00:00:01.76 bitrate=N/A speed=0.255x    \\nframe=   59 fps=7.9 q=-0.0 size=N/A time=00:00:01.93 bitrate=N/A speed=0.257x    \\nframe=   64 fps=7.9 q=-0.0 size=N/A time=00:00:02.10 bitrate=N/A speed=0.259x    \\nframe=   69 fps=7.9 q=-0.0 size=N/A time=00:00:02.26 bitrate=N/A speed=0.261x    \\nframe=   74 fps=8.0 q=-0.0 size=N/A time=00:00:02.43 bitrate=N/A speed=0.262x    \\nframe=   78 fps=8.0 q=-0.0 size=N/A time=00:00:02.56 bitrate=N/A speed=0.262x    \\nframe=   83 fps=8.0 q=-0.0 size=N/A time=00:00:02.73 bitrate=N/A speed=0.263x    \\nframe=   88 fps=8.0 q=-0.0 size=N/A time=00:00:02.90 bitrate=N/A speed=0.264x    \\nframe=   93 fps=8.0 q=-0.0 size=N/A time=00:00:03.06 bitrate=N/A speed=0.265x    \\nframe=   98 fps=8.1 q=-0.0 size=N/A time=00:00:03.23 bitrate=N/A speed=0.266x    \\nframe=  103 fps=8.1 q=-0.0 size=N/A time=00:00:03.40 bitrate=N/A speed=0.266x    \\nframe=  108 fps=8.1 q=-0.0 size=N/A time=00:00:03.56 bitrate=N/A speed=0.266x    \\nframe=  113 fps=8.1 q=-0.0 size=N/A time=00:00:03.73 bitrate=N/A speed=0.267x    \\nframe=  118 fps=8.1 q=-0.0 size=N/A time=00:00:03.90 bitrate=N/A speed=0.267x    \\nframe=  123 fps=8.1 q=-0.0 size=N/A time=00:00:04.06 bitrate=N/A speed=0.267x    \\nframe=  128 fps=8.1 q=-0.0 size=N/A time=00:00:04.23 bitrate=N/A speed=0.267x    \\nframe=  133 fps=8.1 q=-0.0 size=N/A time=00:00:04.40 bitrate=N/A speed=0.267x    \\nframe=  138 fps=8.1 q=-0.0 size=N/A time=00:00:04.56 bitrate=N/A speed=0.268x    \\nframe=  143 fps=8.1 q=-0.0 size=N/A time=00:00:04.73 bitrate=N/A speed=0.268x    \\nframe=  148 fps=8.1 q=-0.0 size=N/A time=00:00:04.90 bitrate=N/A speed=0.268x    \\nframe=  153 fps=8.1 q=-0.0 size=N/A time=00:00:05.06 bitrate=N/A speed=0.268x    \\nframe=  158 fps=8.1 q=-0.0 size=N/A time=00:00:05.23 bitrate=N/A speed=0.268x    \\nframe=  163 fps=8.1 q=-0.0 size=N/A time=00:00:05.40 bitrate=N/A speed=0.268x    \\nframe=  163 fps=8.1 q=-0.0 Lsize=N/A time=00:00:05.40 bitrate=N/A speed=0.268x    \\nvideo:76kB audio:0kB subtitle:0kB other streams:0kB global headers:0kB muxing overhead: unknown\\n[Parsed_libvmaf_0 @ 0x7fbd9390c580] VMAF score: 99.960517\\n\")\n",
      "VMAF SCORE:  99.960517\n",
      "The file at _testing/orig_scenes/factory_1080p30-Scene-019/32M_factory_1080p30-Scene-019.mp4 has been deleted.\n",
      "CURRENT BITRATE: 16\n",
      "ENCODE RESULT:  CompletedProcess(args='ffmpeg -v error -f rawvideo -vcodec rawvideo -s 1920x1080 -r 30 -pix_fmt yuv420p -i _testing/orig_scenes/factory_1080p30-Scene-019.y4m -c:v libx264 -b:v 16M -pass 1 -f null /dev/null &&                                    ffmpeg -v error -f rawvideo -vcodec rawvideo -s 1920x1080 -r 30 -pix_fmt yuv420p -i _testing/orig_scenes/factory_1080p30-Scene-019.y4m -c:v libx264 -b:v 16M -pass 2 _testing/orig_scenes/factory_1080p30-Scene-019/16M_factory_1080p30-Scene-019.mp4', returncode=0, stdout='', stderr='')\n",
      "VMAF RESULT:  CompletedProcess(args='ffmpeg -i _testing/orig_scenes/factory_1080p30-Scene-019/16M_factory_1080p30-Scene-019.mp4 -i _testing/orig_scenes/factory_1080p30-Scene-019/qp0_factory_1080p30-Scene-019.mp4 -filter_complex libvmaf -f null -', returncode=0, stdout='', stderr=\"ffmpeg version 6.0 Copyright (c) 2000-2023 the FFmpeg developers\\n  built with Apple clang version 14.0.3 (clang-1403.0.22.14.1)\\n  configuration: --prefix=/usr/local/Cellar/ffmpeg/6.0 --enable-shared --enable-pthreads --enable-version3 --cc=clang --host-cflags= --host-ldflags= --enable-ffplay --enable-gnutls --enable-gpl --enable-libaom --enable-libaribb24 --enable-libbluray --enable-libdav1d --enable-libmp3lame --enable-libopus --enable-librav1e --enable-librist --enable-librubberband --enable-libsnappy --enable-libsrt --enable-libsvtav1 --enable-libtesseract --enable-libtheora --enable-libvidstab --enable-libvmaf --enable-libvorbis --enable-libvpx --enable-libwebp --enable-libx264 --enable-libx265 --enable-libxml2 --enable-libxvid --enable-lzma --enable-libfontconfig --enable-libfreetype --enable-frei0r --enable-libass --enable-libopencore-amrnb --enable-libopencore-amrwb --enable-libopenjpeg --enable-libspeex --enable-libsoxr --enable-libzmq --enable-libzimg --disable-libjack --disable-indev=jack --enable-videotoolbox\\n  libavutil      58.  2.100 / 58.  2.100\\n  libavcodec     60.  3.100 / 60.  3.100\\n  libavformat    60.  3.100 / 60.  3.100\\n  libavdevice    60.  1.100 / 60.  1.100\\n  libavfilter     9.  3.100 /  9.  3.100\\n  libswscale      7.  1.100 /  7.  1.100\\n  libswresample   4. 10.100 /  4. 10.100\\n  libpostproc    57.  1.100 / 57.  1.100\\nInput #0, mov,mp4,m4a,3gp,3g2,mj2, from '_testing/orig_scenes/factory_1080p30-Scene-019/16M_factory_1080p30-Scene-019.mp4':\\n  Metadata:\\n    major_brand     : isom\\n    minor_version   : 512\\n    compatible_brands: isomiso2avc1mp41\\n    encoder         : Lavf60.3.100\\n  Duration: 00:00:05.43, start: 0.000000, bitrate: 16085 kb/s\\n  Stream #0:0[0x1](und): Video: h264 (High) (avc1 / 0x31637661), yuv420p(progressive), 1920x1080, 16081 kb/s, 30 fps, 30 tbr, 15360 tbn (default)\\n    Metadata:\\n      handler_name    : VideoHandler\\n      vendor_id       : [0][0][0][0]\\n      encoder         : Lavc60.3.100 libx264\\nInput #1, mov,mp4,m4a,3gp,3g2,mj2, from '_testing/orig_scenes/factory_1080p30-Scene-019/qp0_factory_1080p30-Scene-019.mp4':\\n  Metadata:\\n    major_brand     : isom\\n    minor_version   : 512\\n    compatible_brands: isomiso2avc1mp41\\n    encoder         : Lavf60.3.100\\n  Duration: 00:00:05.43, start: 0.000000, bitrate: 85825 kb/s\\n  Stream #1:0[0x1](und): Video: h264 (High 4:4:4 Predictive) (avc1 / 0x31637661), yuv420p(progressive), 1920x1080, 85822 kb/s, 30 fps, 30 tbr, 15360 tbn (default)\\n    Metadata:\\n      handler_name    : VideoHandler\\n      vendor_id       : [0][0][0][0]\\n      encoder         : Lavc60.3.100 libx264\\nStream mapping:\\n  Stream #0:0 (h264) -> libvmaf\\n  Stream #1:0 (h264) -> libvmaf\\n  libvmaf:default -> Stream #0:0 (wrapped_avframe)\\nPress [q] to stop, [?] for help\\nOutput #0, null, to 'pipe:':\\n  Metadata:\\n    major_brand     : isom\\n    minor_version   : 512\\n    compatible_brands: isomiso2avc1mp41\\n    encoder         : Lavf60.3.100\\n  Stream #0:0: Video: wrapped_avframe, yuv420p(progressive), 1920x1080, q=2-31, 200 kb/s, 30 fps, 30 tbn\\n    Metadata:\\n      encoder         : Lavc60.3.100 wrapped_avframe\\nframe=    0 fps=0.0 q=-0.0 size=       0kB time=00:00:00.00 bitrate=N/A speed=   0x    \\nframe=    3 fps=0.0 q=-0.0 size=N/A time=00:00:00.06 bitrate=N/A speed=0.105x    \\nframe=    7 fps=5.8 q=-0.0 size=N/A time=00:00:00.20 bitrate=N/A speed=0.165x    \\nframe=   11 fps=6.4 q=-0.0 size=N/A time=00:00:00.33 bitrate=N/A speed=0.193x    \\nframe=   16 fps=6.8 q=-0.0 size=N/A time=00:00:00.50 bitrate=N/A speed=0.211x    \\nframe=   20 fps=6.8 q=-0.0 size=N/A time=00:00:00.63 bitrate=N/A speed=0.217x    \\nframe=   24 fps=7.0 q=-0.0 size=N/A time=00:00:00.76 bitrate=N/A speed=0.222x    \\nframe=   28 fps=6.9 q=-0.0 size=N/A time=00:00:00.90 bitrate=N/A speed=0.222x    \\nframe=   32 fps=6.9 q=-0.0 size=N/A time=00:00:01.03 bitrate=N/A speed=0.223x    \\nframe=   36 fps=6.9 q=-0.0 size=N/A time=00:00:01.16 bitrate=N/A speed=0.224x    \\nframe=   41 fps=7.1 q=-0.0 size=N/A time=00:00:01.33 bitrate=N/A speed=0.23x    \\nframe=   46 fps=7.2 q=-0.0 size=N/A time=00:00:01.50 bitrate=N/A speed=0.234x    \\nframe=   51 fps=7.3 q=-0.0 size=N/A time=00:00:01.66 bitrate=N/A speed=0.239x    \\nframe=   56 fps=7.4 q=-0.0 size=N/A time=00:00:01.83 bitrate=N/A speed=0.243x    \\nframe=   60 fps=7.4 q=-0.0 size=N/A time=00:00:01.96 bitrate=N/A speed=0.243x    \\nframe=   64 fps=7.4 q=-0.0 size=N/A time=00:00:02.10 bitrate=N/A speed=0.244x    \\nframe=   68 fps=7.4 q=-0.0 size=N/A time=00:00:02.23 bitrate=N/A speed=0.244x    \\nframe=   72 fps=7.5 q=-0.0 size=N/A time=00:00:02.36 bitrate=N/A speed=0.245x    \\nframe=   77 fps=7.5 q=-0.0 size=N/A time=00:00:02.53 bitrate=N/A speed=0.247x    \\nframe=   82 fps=7.6 q=-0.0 size=N/A time=00:00:02.70 bitrate=N/A speed=0.249x    \\nframe=   86 fps=7.6 q=-0.0 size=N/A time=00:00:02.83 bitrate=N/A speed=0.249x    \\nframe=   91 fps=7.6 q=-0.0 size=N/A time=00:00:03.00 bitrate=N/A speed=0.251x    \\nframe=   96 fps=7.6 q=-0.0 size=N/A time=00:00:03.16 bitrate=N/A speed=0.252x    \\nframe=  101 fps=7.7 q=-0.0 size=N/A time=00:00:03.33 bitrate=N/A speed=0.253x    \\nframe=  106 fps=7.7 q=-0.0 size=N/A time=00:00:03.50 bitrate=N/A speed=0.254x    \\nframe=  110 fps=7.7 q=-0.0 size=N/A time=00:00:03.66 bitrate=N/A speed=0.257x    \\nframe=  115 fps=7.7 q=-0.0 size=N/A time=00:00:03.80 bitrate=N/A speed=0.255x    \\nframe=  120 fps=7.7 q=-0.0 size=N/A time=00:00:03.96 bitrate=N/A speed=0.256x    \\nframe=  124 fps=7.7 q=-0.0 size=N/A time=00:00:04.10 bitrate=N/A speed=0.256x    \\nframe=  129 fps=7.8 q=-0.0 size=N/A time=00:00:04.26 bitrate=N/A speed=0.256x    \\nframe=  134 fps=7.8 q=-0.0 size=N/A time=00:00:04.43 bitrate=N/A speed=0.257x    \\nframe=  139 fps=7.8 q=-0.0 size=N/A time=00:00:04.60 bitrate=N/A speed=0.257x    \\nframe=  143 fps=7.8 q=-0.0 size=N/A time=00:00:04.73 bitrate=N/A speed=0.257x    \\nframe=  148 fps=7.8 q=-0.0 size=N/A time=00:00:04.90 bitrate=N/A speed=0.257x    \\nframe=  153 fps=7.8 q=-0.0 size=N/A time=00:00:05.06 bitrate=N/A speed=0.258x    \\nframe=  158 fps=7.8 q=-0.0 size=N/A time=00:00:05.23 bitrate=N/A speed=0.258x    \\nframe=  163 fps=7.8 q=-0.0 size=N/A time=00:00:05.40 bitrate=N/A speed=0.259x    \\nframe=  163 fps=7.8 q=-0.0 Lsize=N/A time=00:00:05.40 bitrate=N/A speed=0.259x    \\nvideo:76kB audio:0kB subtitle:0kB other streams:0kB global headers:0kB muxing overhead: unknown\\n[Parsed_libvmaf_0 @ 0x7fc41910a280] VMAF score: 99.874657\\n\")\n",
      "VMAF SCORE:  99.874657\n",
      "The file at _testing/orig_scenes/factory_1080p30-Scene-019/16M_factory_1080p30-Scene-019.mp4 has been deleted.\n",
      "CURRENT BITRATE: 8\n",
      "ENCODE RESULT:  CompletedProcess(args='ffmpeg -v error -f rawvideo -vcodec rawvideo -s 1920x1080 -r 30 -pix_fmt yuv420p -i _testing/orig_scenes/factory_1080p30-Scene-019.y4m -c:v libx264 -b:v 8M -pass 1 -f null /dev/null &&                                    ffmpeg -v error -f rawvideo -vcodec rawvideo -s 1920x1080 -r 30 -pix_fmt yuv420p -i _testing/orig_scenes/factory_1080p30-Scene-019.y4m -c:v libx264 -b:v 8M -pass 2 _testing/orig_scenes/factory_1080p30-Scene-019/8M_factory_1080p30-Scene-019.mp4', returncode=0, stdout='', stderr='')\n",
      "VMAF RESULT:  CompletedProcess(args='ffmpeg -i _testing/orig_scenes/factory_1080p30-Scene-019/8M_factory_1080p30-Scene-019.mp4 -i _testing/orig_scenes/factory_1080p30-Scene-019/qp0_factory_1080p30-Scene-019.mp4 -filter_complex libvmaf -f null -', returncode=0, stdout='', stderr=\"ffmpeg version 6.0 Copyright (c) 2000-2023 the FFmpeg developers\\n  built with Apple clang version 14.0.3 (clang-1403.0.22.14.1)\\n  configuration: --prefix=/usr/local/Cellar/ffmpeg/6.0 --enable-shared --enable-pthreads --enable-version3 --cc=clang --host-cflags= --host-ldflags= --enable-ffplay --enable-gnutls --enable-gpl --enable-libaom --enable-libaribb24 --enable-libbluray --enable-libdav1d --enable-libmp3lame --enable-libopus --enable-librav1e --enable-librist --enable-librubberband --enable-libsnappy --enable-libsrt --enable-libsvtav1 --enable-libtesseract --enable-libtheora --enable-libvidstab --enable-libvmaf --enable-libvorbis --enable-libvpx --enable-libwebp --enable-libx264 --enable-libx265 --enable-libxml2 --enable-libxvid --enable-lzma --enable-libfontconfig --enable-libfreetype --enable-frei0r --enable-libass --enable-libopencore-amrnb --enable-libopencore-amrwb --enable-libopenjpeg --enable-libspeex --enable-libsoxr --enable-libzmq --enable-libzimg --disable-libjack --disable-indev=jack --enable-videotoolbox\\n  libavutil      58.  2.100 / 58.  2.100\\n  libavcodec     60.  3.100 / 60.  3.100\\n  libavformat    60.  3.100 / 60.  3.100\\n  libavdevice    60.  1.100 / 60.  1.100\\n  libavfilter     9.  3.100 /  9.  3.100\\n  libswscale      7.  1.100 /  7.  1.100\\n  libswresample   4. 10.100 /  4. 10.100\\n  libpostproc    57.  1.100 / 57.  1.100\\nInput #0, mov,mp4,m4a,3gp,3g2,mj2, from '_testing/orig_scenes/factory_1080p30-Scene-019/8M_factory_1080p30-Scene-019.mp4':\\n  Metadata:\\n    major_brand     : isom\\n    minor_version   : 512\\n    compatible_brands: isomiso2avc1mp41\\n    encoder         : Lavf60.3.100\\n  Duration: 00:00:05.43, start: 0.000000, bitrate: 8025 kb/s\\n  Stream #0:0[0x1](und): Video: h264 (High) (avc1 / 0x31637661), yuv420p(progressive), 1920x1080, 8021 kb/s, 30 fps, 30 tbr, 15360 tbn (default)\\n    Metadata:\\n      handler_name    : VideoHandler\\n      vendor_id       : [0][0][0][0]\\n      encoder         : Lavc60.3.100 libx264\\nInput #1, mov,mp4,m4a,3gp,3g2,mj2, from '_testing/orig_scenes/factory_1080p30-Scene-019/qp0_factory_1080p30-Scene-019.mp4':\\n  Metadata:\\n    major_brand     : isom\\n    minor_version   : 512\\n    compatible_brands: isomiso2avc1mp41\\n    encoder         : Lavf60.3.100\\n  Duration: 00:00:05.43, start: 0.000000, bitrate: 85825 kb/s\\n  Stream #1:0[0x1](und): Video: h264 (High 4:4:4 Predictive) (avc1 / 0x31637661), yuv420p(progressive), 1920x1080, 85822 kb/s, 30 fps, 30 tbr, 15360 tbn (default)\\n    Metadata:\\n      handler_name    : VideoHandler\\n      vendor_id       : [0][0][0][0]\\n      encoder         : Lavc60.3.100 libx264\\nStream mapping:\\n  Stream #0:0 (h264) -> libvmaf\\n  Stream #1:0 (h264) -> libvmaf\\n  libvmaf:default -> Stream #0:0 (wrapped_avframe)\\nPress [q] to stop, [?] for help\\nOutput #0, null, to 'pipe:':\\n  Metadata:\\n    major_brand     : isom\\n    minor_version   : 512\\n    compatible_brands: isomiso2avc1mp41\\n    encoder         : Lavf60.3.100\\n  Stream #0:0: Video: wrapped_avframe, yuv420p(progressive), 1920x1080, q=2-31, 200 kb/s, 30 fps, 30 tbn\\n    Metadata:\\n      encoder         : Lavc60.3.100 wrapped_avframe\\nframe=    0 fps=0.0 q=-0.0 size=       0kB time=00:00:00.00 bitrate=N/A speed=   0x    \\nframe=    3 fps=0.0 q=-0.0 size=N/A time=00:00:00.06 bitrate=N/A speed=0.101x    \\nframe=    7 fps=5.8 q=-0.0 size=N/A time=00:00:00.20 bitrate=N/A speed=0.166x    \\nframe=   11 fps=6.4 q=-0.0 size=N/A time=00:00:00.33 bitrate=N/A speed=0.195x    \\nframe=   16 fps=6.9 q=-0.0 size=N/A time=00:00:00.50 bitrate=N/A speed=0.216x    \\nframe=   21 fps=7.2 q=-0.0 size=N/A time=00:00:00.66 bitrate=N/A speed=0.228x    \\nframe=   26 fps=7.4 q=-0.0 size=N/A time=00:00:00.83 bitrate=N/A speed=0.236x    \\nframe=   31 fps=7.5 q=-0.0 size=N/A time=00:00:01.00 bitrate=N/A speed=0.241x    \\nframe=   36 fps=7.6 q=-0.0 size=N/A time=00:00:01.16 bitrate=N/A speed=0.247x    \\nframe=   41 fps=7.7 q=-0.0 size=N/A time=00:00:01.33 bitrate=N/A speed=0.251x    \\nframe=   46 fps=7.8 q=-0.0 size=N/A time=00:00:01.50 bitrate=N/A speed=0.255x    \\nframe=   51 fps=7.9 q=-0.0 size=N/A time=00:00:01.66 bitrate=N/A speed=0.258x    \\nframe=   56 fps=8.0 q=-0.0 size=N/A time=00:00:01.83 bitrate=N/A speed=0.261x    \\nframe=   61 fps=8.0 q=-0.0 size=N/A time=00:00:02.00 bitrate=N/A speed=0.263x    \\nframe=   66 fps=8.1 q=-0.0 size=N/A time=00:00:02.16 bitrate=N/A speed=0.264x    \\nframe=   71 fps=8.1 q=-0.0 size=N/A time=00:00:02.33 bitrate=N/A speed=0.266x    \\nframe=   76 fps=8.1 q=-0.0 size=N/A time=00:00:02.50 bitrate=N/A speed=0.267x    \\nframe=   81 fps=8.1 q=-0.0 size=N/A time=00:00:02.66 bitrate=N/A speed=0.268x    \\nframe=   86 fps=8.1 q=-0.0 size=N/A time=00:00:02.83 bitrate=N/A speed=0.268x    \\nframe=   90 fps=8.1 q=-0.0 size=N/A time=00:00:02.96 bitrate=N/A speed=0.268x    \\nframe=   95 fps=8.1 q=-0.0 size=N/A time=00:00:03.13 bitrate=N/A speed=0.268x    \\nframe=  100 fps=8.1 q=-0.0 size=N/A time=00:00:03.30 bitrate=N/A speed=0.269x    \\nframe=  105 fps=8.1 q=-0.0 size=N/A time=00:00:03.46 bitrate=N/A speed=0.269x    \\nframe=  110 fps=8.2 q=-0.0 size=N/A time=00:00:03.63 bitrate=N/A speed=0.269x    \\nframe=  115 fps=8.1 q=-0.0 size=N/A time=00:00:03.80 bitrate=N/A speed=0.269x    \\nframe=  120 fps=8.1 q=-0.0 size=N/A time=00:00:03.96 bitrate=N/A speed=0.269x    \\nframe=  124 fps=8.1 q=-0.0 size=N/A time=00:00:04.13 bitrate=N/A speed=0.269x    \\nframe=  130 fps=8.1 q=-0.0 size=N/A time=00:00:04.30 bitrate=N/A speed=0.27x    \\nframe=  135 fps=8.1 q=-0.0 size=N/A time=00:00:04.46 bitrate=N/A speed=0.27x    \\nframe=  139 fps=8.1 q=-0.0 size=N/A time=00:00:04.63 bitrate=N/A speed=0.27x    \\nframe=  145 fps=8.1 q=-0.0 size=N/A time=00:00:04.80 bitrate=N/A speed=0.27x    \\nframe=  149 fps=8.1 q=-0.0 size=N/A time=00:00:04.93 bitrate=N/A speed=0.269x    \\nframe=  153 fps=8.1 q=-0.0 size=N/A time=00:00:05.06 bitrate=N/A speed=0.268x    \\nframe=  157 fps=8.1 q=-0.0 size=N/A time=00:00:05.20 bitrate=N/A speed=0.268x    \\nframe=  161 fps=8.1 q=-0.0 size=N/A time=00:00:05.33 bitrate=N/A speed=0.267x    \\nframe=  163 fps=8.1 q=-0.0 Lsize=N/A time=00:00:05.40 bitrate=N/A speed=0.267x    \\nvideo:76kB audio:0kB subtitle:0kB other streams:0kB global headers:0kB muxing overhead: unknown\\n[Parsed_libvmaf_0 @ 0x7fa0e240ad00] VMAF score: 99.446134\\n\")\n",
      "VMAF SCORE:  99.446134\n",
      "The file at _testing/orig_scenes/factory_1080p30-Scene-019/8M_factory_1080p30-Scene-019.mp4 has been deleted.\n",
      "CURRENT BITRATE: 4\n",
      "ENCODE RESULT:  CompletedProcess(args='ffmpeg -v error -f rawvideo -vcodec rawvideo -s 1920x1080 -r 30 -pix_fmt yuv420p -i _testing/orig_scenes/factory_1080p30-Scene-019.y4m -c:v libx264 -b:v 4M -pass 1 -f null /dev/null &&                                    ffmpeg -v error -f rawvideo -vcodec rawvideo -s 1920x1080 -r 30 -pix_fmt yuv420p -i _testing/orig_scenes/factory_1080p30-Scene-019.y4m -c:v libx264 -b:v 4M -pass 2 _testing/orig_scenes/factory_1080p30-Scene-019/4M_factory_1080p30-Scene-019.mp4', returncode=0, stdout='', stderr='')\n",
      "VMAF RESULT:  CompletedProcess(args='ffmpeg -i _testing/orig_scenes/factory_1080p30-Scene-019/4M_factory_1080p30-Scene-019.mp4 -i _testing/orig_scenes/factory_1080p30-Scene-019/qp0_factory_1080p30-Scene-019.mp4 -filter_complex libvmaf -f null -', returncode=0, stdout='', stderr=\"ffmpeg version 6.0 Copyright (c) 2000-2023 the FFmpeg developers\\n  built with Apple clang version 14.0.3 (clang-1403.0.22.14.1)\\n  configuration: --prefix=/usr/local/Cellar/ffmpeg/6.0 --enable-shared --enable-pthreads --enable-version3 --cc=clang --host-cflags= --host-ldflags= --enable-ffplay --enable-gnutls --enable-gpl --enable-libaom --enable-libaribb24 --enable-libbluray --enable-libdav1d --enable-libmp3lame --enable-libopus --enable-librav1e --enable-librist --enable-librubberband --enable-libsnappy --enable-libsrt --enable-libsvtav1 --enable-libtesseract --enable-libtheora --enable-libvidstab --enable-libvmaf --enable-libvorbis --enable-libvpx --enable-libwebp --enable-libx264 --enable-libx265 --enable-libxml2 --enable-libxvid --enable-lzma --enable-libfontconfig --enable-libfreetype --enable-frei0r --enable-libass --enable-libopencore-amrnb --enable-libopencore-amrwb --enable-libopenjpeg --enable-libspeex --enable-libsoxr --enable-libzmq --enable-libzimg --disable-libjack --disable-indev=jack --enable-videotoolbox\\n  libavutil      58.  2.100 / 58.  2.100\\n  libavcodec     60.  3.100 / 60.  3.100\\n  libavformat    60.  3.100 / 60.  3.100\\n  libavdevice    60.  1.100 / 60.  1.100\\n  libavfilter     9.  3.100 /  9.  3.100\\n  libswscale      7.  1.100 /  7.  1.100\\n  libswresample   4. 10.100 /  4. 10.100\\n  libpostproc    57.  1.100 / 57.  1.100\\nInput #0, mov,mp4,m4a,3gp,3g2,mj2, from '_testing/orig_scenes/factory_1080p30-Scene-019/4M_factory_1080p30-Scene-019.mp4':\\n  Metadata:\\n    major_brand     : isom\\n    minor_version   : 512\\n    compatible_brands: isomiso2avc1mp41\\n    encoder         : Lavf60.3.100\\n  Duration: 00:00:05.43, start: 0.000000, bitrate: 4034 kb/s\\n  Stream #0:0[0x1](und): Video: h264 (High) (avc1 / 0x31637661), yuv420p(progressive), 1920x1080, 4030 kb/s, 30 fps, 30 tbr, 15360 tbn (default)\\n    Metadata:\\n      handler_name    : VideoHandler\\n      vendor_id       : [0][0][0][0]\\n      encoder         : Lavc60.3.100 libx264\\nInput #1, mov,mp4,m4a,3gp,3g2,mj2, from '_testing/orig_scenes/factory_1080p30-Scene-019/qp0_factory_1080p30-Scene-019.mp4':\\n  Metadata:\\n    major_brand     : isom\\n    minor_version   : 512\\n    compatible_brands: isomiso2avc1mp41\\n    encoder         : Lavf60.3.100\\n  Duration: 00:00:05.43, start: 0.000000, bitrate: 85825 kb/s\\n  Stream #1:0[0x1](und): Video: h264 (High 4:4:4 Predictive) (avc1 / 0x31637661), yuv420p(progressive), 1920x1080, 85822 kb/s, 30 fps, 30 tbr, 15360 tbn (default)\\n    Metadata:\\n      handler_name    : VideoHandler\\n      vendor_id       : [0][0][0][0]\\n      encoder         : Lavc60.3.100 libx264\\nStream mapping:\\n  Stream #0:0 (h264) -> libvmaf\\n  Stream #1:0 (h264) -> libvmaf\\n  libvmaf:default -> Stream #0:0 (wrapped_avframe)\\nPress [q] to stop, [?] for help\\nOutput #0, null, to 'pipe:':\\n  Metadata:\\n    major_brand     : isom\\n    minor_version   : 512\\n    compatible_brands: isomiso2avc1mp41\\n    encoder         : Lavf60.3.100\\n  Stream #0:0: Video: wrapped_avframe, yuv420p(progressive), 1920x1080, q=2-31, 200 kb/s, 30 fps, 30 tbn\\n    Metadata:\\n      encoder         : Lavc60.3.100 wrapped_avframe\\nframe=    0 fps=0.0 q=-0.0 size=       0kB time=00:00:00.00 bitrate=N/A speed=   0x    \\nframe=    3 fps=0.0 q=-0.0 size=N/A time=00:00:00.06 bitrate=N/A speed=0.107x    \\nframe=    7 fps=5.8 q=-0.0 size=N/A time=00:00:00.20 bitrate=N/A speed=0.167x    \\nframe=   11 fps=6.4 q=-0.0 size=N/A time=00:00:00.33 bitrate=N/A speed=0.193x    \\nframe=   15 fps=6.7 q=-0.0 size=N/A time=00:00:00.46 bitrate=N/A speed=0.209x    \\nframe=   20 fps=7.0 q=-0.0 size=N/A time=00:00:00.63 bitrate=N/A speed=0.222x    \\nframe=   25 fps=7.2 q=-0.0 size=N/A time=00:00:00.80 bitrate=N/A speed=0.231x    \\nframe=   29 fps=7.2 q=-0.0 size=N/A time=00:00:00.93 bitrate=N/A speed=0.232x    \\nframe=   34 fps=7.3 q=-0.0 size=N/A time=00:00:01.10 bitrate=N/A speed=0.238x    \\nframe=   39 fps=7.5 q=-0.0 size=N/A time=00:00:01.26 bitrate=N/A speed=0.243x    \\nframe=   44 fps=7.6 q=-0.0 size=N/A time=00:00:01.43 bitrate=N/A speed=0.247x    \\nframe=   49 fps=7.7 q=-0.0 size=N/A time=00:00:01.60 bitrate=N/A speed=0.251x    \\nframe=   54 fps=7.8 q=-0.0 size=N/A time=00:00:01.76 bitrate=N/A speed=0.254x    \\nframe=   59 fps=7.8 q=-0.0 size=N/A time=00:00:01.93 bitrate=N/A speed=0.256x    \\nframe=   64 fps=7.9 q=-0.0 size=N/A time=00:00:02.10 bitrate=N/A speed=0.259x    \\nframe=   69 fps=7.9 q=-0.0 size=N/A time=00:00:02.26 bitrate=N/A speed=0.26x    \\nframe=   74 fps=7.9 q=-0.0 size=N/A time=00:00:02.43 bitrate=N/A speed=0.26x    \\nframe=   79 fps=7.9 q=-0.0 size=N/A time=00:00:02.60 bitrate=N/A speed=0.262x    \\nframe=   84 fps=8.0 q=-0.0 size=N/A time=00:00:02.76 bitrate=N/A speed=0.262x    \\nframe=   89 fps=8.0 q=-0.0 size=N/A time=00:00:02.93 bitrate=N/A speed=0.263x    \\nframe=   94 fps=8.0 q=-0.0 size=N/A time=00:00:03.10 bitrate=N/A speed=0.264x    \\nframe=   98 fps=8.0 q=-0.0 size=N/A time=00:00:03.23 bitrate=N/A speed=0.264x    \\nframe=  102 fps=8.0 q=-0.0 size=N/A time=00:00:03.36 bitrate=N/A speed=0.264x    \\nframe=  106 fps=8.0 q=-0.0 size=N/A time=00:00:03.50 bitrate=N/A speed=0.264x    \\nframe=  111 fps=8.0 q=-0.0 size=N/A time=00:00:03.66 bitrate=N/A speed=0.264x    \\nframe=  115 fps=8.0 q=-0.0 size=N/A time=00:00:03.83 bitrate=N/A speed=0.266x    \\nframe=  119 fps=8.0 q=-0.0 size=N/A time=00:00:03.93 bitrate=N/A speed=0.264x    \\nframe=  123 fps=8.0 q=-0.0 size=N/A time=00:00:04.06 bitrate=N/A speed=0.264x    \\nframe=  128 fps=8.0 q=-0.0 size=N/A time=00:00:04.23 bitrate=N/A speed=0.264x    \\nframe=  133 fps=8.0 q=-0.0 size=N/A time=00:00:04.40 bitrate=N/A speed=0.264x    \\nframe=  138 fps=8.0 q=-0.0 size=N/A time=00:00:04.56 bitrate=N/A speed=0.265x    \\nframe=  142 fps=8.0 q=-0.0 size=N/A time=00:00:04.70 bitrate=N/A speed=0.264x    \\nframe=  146 fps=7.9 q=-0.0 size=N/A time=00:00:04.86 bitrate=N/A speed=0.265x    \\nframe=  152 fps=8.0 q=-0.0 size=N/A time=00:00:05.03 bitrate=N/A speed=0.265x    \\nframe=  155 fps=7.9 q=-0.0 size=N/A time=00:00:05.16 bitrate=N/A speed=0.265x    \\nframe=  160 fps=8.0 q=-0.0 size=N/A time=00:00:05.30 bitrate=N/A speed=0.265x    \\nframe=  163 fps=8.0 q=-0.0 Lsize=N/A time=00:00:05.40 bitrate=N/A speed=0.265x    \\nvideo:76kB audio:0kB subtitle:0kB other streams:0kB global headers:0kB muxing overhead: unknown\\n[Parsed_libvmaf_0 @ 0x7fe699821380] VMAF score: 97.795883\\n\")\n",
      "VMAF SCORE:  97.795883\n",
      "The file at _testing/orig_scenes/factory_1080p30-Scene-019/4M_factory_1080p30-Scene-019.mp4 has been deleted.\n",
      "CURRENT BITRATE: 6\n",
      "ENCODE RESULT:  CompletedProcess(args='ffmpeg -v error -f rawvideo -vcodec rawvideo -s 1920x1080 -r 30 -pix_fmt yuv420p -i _testing/orig_scenes/factory_1080p30-Scene-019.y4m -c:v libx264 -b:v 6M -pass 1 -f null /dev/null &&                                    ffmpeg -v error -f rawvideo -vcodec rawvideo -s 1920x1080 -r 30 -pix_fmt yuv420p -i _testing/orig_scenes/factory_1080p30-Scene-019.y4m -c:v libx264 -b:v 6M -pass 2 _testing/orig_scenes/factory_1080p30-Scene-019/6M_factory_1080p30-Scene-019.mp4', returncode=0, stdout='', stderr='')\n",
      "VMAF RESULT:  CompletedProcess(args='ffmpeg -i _testing/orig_scenes/factory_1080p30-Scene-019/6M_factory_1080p30-Scene-019.mp4 -i _testing/orig_scenes/factory_1080p30-Scene-019/qp0_factory_1080p30-Scene-019.mp4 -filter_complex libvmaf -f null -', returncode=0, stdout='', stderr=\"ffmpeg version 6.0 Copyright (c) 2000-2023 the FFmpeg developers\\n  built with Apple clang version 14.0.3 (clang-1403.0.22.14.1)\\n  configuration: --prefix=/usr/local/Cellar/ffmpeg/6.0 --enable-shared --enable-pthreads --enable-version3 --cc=clang --host-cflags= --host-ldflags= --enable-ffplay --enable-gnutls --enable-gpl --enable-libaom --enable-libaribb24 --enable-libbluray --enable-libdav1d --enable-libmp3lame --enable-libopus --enable-librav1e --enable-librist --enable-librubberband --enable-libsnappy --enable-libsrt --enable-libsvtav1 --enable-libtesseract --enable-libtheora --enable-libvidstab --enable-libvmaf --enable-libvorbis --enable-libvpx --enable-libwebp --enable-libx264 --enable-libx265 --enable-libxml2 --enable-libxvid --enable-lzma --enable-libfontconfig --enable-libfreetype --enable-frei0r --enable-libass --enable-libopencore-amrnb --enable-libopencore-amrwb --enable-libopenjpeg --enable-libspeex --enable-libsoxr --enable-libzmq --enable-libzimg --disable-libjack --disable-indev=jack --enable-videotoolbox\\n  libavutil      58.  2.100 / 58.  2.100\\n  libavcodec     60.  3.100 / 60.  3.100\\n  libavformat    60.  3.100 / 60.  3.100\\n  libavdevice    60.  1.100 / 60.  1.100\\n  libavfilter     9.  3.100 /  9.  3.100\\n  libswscale      7.  1.100 /  7.  1.100\\n  libswresample   4. 10.100 /  4. 10.100\\n  libpostproc    57.  1.100 / 57.  1.100\\nInput #0, mov,mp4,m4a,3gp,3g2,mj2, from '_testing/orig_scenes/factory_1080p30-Scene-019/6M_factory_1080p30-Scene-019.mp4':\\n  Metadata:\\n    major_brand     : isom\\n    minor_version   : 512\\n    compatible_brands: isomiso2avc1mp41\\n    encoder         : Lavf60.3.100\\n  Duration: 00:00:05.43, start: 0.000000, bitrate: 6014 kb/s\\n  Stream #0:0[0x1](und): Video: h264 (High) (avc1 / 0x31637661), yuv420p(progressive), 1920x1080, 6010 kb/s, 30 fps, 30 tbr, 15360 tbn (default)\\n    Metadata:\\n      handler_name    : VideoHandler\\n      vendor_id       : [0][0][0][0]\\n      encoder         : Lavc60.3.100 libx264\\nInput #1, mov,mp4,m4a,3gp,3g2,mj2, from '_testing/orig_scenes/factory_1080p30-Scene-019/qp0_factory_1080p30-Scene-019.mp4':\\n  Metadata:\\n    major_brand     : isom\\n    minor_version   : 512\\n    compatible_brands: isomiso2avc1mp41\\n    encoder         : Lavf60.3.100\\n  Duration: 00:00:05.43, start: 0.000000, bitrate: 85825 kb/s\\n  Stream #1:0[0x1](und): Video: h264 (High 4:4:4 Predictive) (avc1 / 0x31637661), yuv420p(progressive), 1920x1080, 85822 kb/s, 30 fps, 30 tbr, 15360 tbn (default)\\n    Metadata:\\n      handler_name    : VideoHandler\\n      vendor_id       : [0][0][0][0]\\n      encoder         : Lavc60.3.100 libx264\\nStream mapping:\\n  Stream #0:0 (h264) -> libvmaf\\n  Stream #1:0 (h264) -> libvmaf\\n  libvmaf:default -> Stream #0:0 (wrapped_avframe)\\nPress [q] to stop, [?] for help\\nOutput #0, null, to 'pipe:':\\n  Metadata:\\n    major_brand     : isom\\n    minor_version   : 512\\n    compatible_brands: isomiso2avc1mp41\\n    encoder         : Lavf60.3.100\\n  Stream #0:0: Video: wrapped_avframe, yuv420p(progressive), 1920x1080, q=2-31, 200 kb/s, 30 fps, 30 tbn\\n    Metadata:\\n      encoder         : Lavc60.3.100 wrapped_avframe\\nframe=    0 fps=0.0 q=-0.0 size=       0kB time=00:00:00.00 bitrate=N/A speed=   0x    \\nframe=    3 fps=0.0 q=-0.0 size=N/A time=00:00:00.06 bitrate=N/A speed=0.112x    \\nframe=    7 fps=6.1 q=-0.0 size=N/A time=00:00:00.20 bitrate=N/A speed=0.174x    \\nframe=   11 fps=6.6 q=-0.0 size=N/A time=00:00:00.33 bitrate=N/A speed=0.199x    \\nframe=   15 fps=6.8 q=-0.0 size=N/A time=00:00:00.46 bitrate=N/A speed=0.213x    \\nframe=   19 fps=6.9 q=-0.0 size=N/A time=00:00:00.60 bitrate=N/A speed=0.219x    \\nframe=   23 fps=7.1 q=-0.0 size=N/A time=00:00:00.73 bitrate=N/A speed=0.225x    \\nframe=   27 fps=7.2 q=-0.0 size=N/A time=00:00:00.86 bitrate=N/A speed=0.23x    \\nframe=   32 fps=7.3 q=-0.0 size=N/A time=00:00:01.03 bitrate=N/A speed=0.236x    \\nframe=   37 fps=7.4 q=-0.0 size=N/A time=00:00:01.20 bitrate=N/A speed=0.241x    \\nframe=   41 fps=7.5 q=-0.0 size=N/A time=00:00:01.33 bitrate=N/A speed=0.243x    \\nframe=   46 fps=7.5 q=-0.0 size=N/A time=00:00:01.50 bitrate=N/A speed=0.246x    \\nframe=   51 fps=7.6 q=-0.0 size=N/A time=00:00:01.66 bitrate=N/A speed=0.25x    \\nframe=   56 fps=7.7 q=-0.0 size=N/A time=00:00:01.83 bitrate=N/A speed=0.252x    \\nframe=   61 fps=7.7 q=-0.0 size=N/A time=00:00:02.00 bitrate=N/A speed=0.254x    \\nframe=   65 fps=7.7 q=-0.0 size=N/A time=00:00:02.13 bitrate=N/A speed=0.254x    \\nframe=   70 fps=7.8 q=-0.0 size=N/A time=00:00:02.30 bitrate=N/A speed=0.256x    \\nframe=   75 fps=7.8 q=-0.0 size=N/A time=00:00:02.46 bitrate=N/A speed=0.257x    \\nframe=   80 fps=7.9 q=-0.0 size=N/A time=00:00:02.63 bitrate=N/A speed=0.259x    \\nframe=   84 fps=7.9 q=-0.0 size=N/A time=00:00:02.76 bitrate=N/A speed=0.259x    \\nframe=   89 fps=7.9 q=-0.0 size=N/A time=00:00:02.93 bitrate=N/A speed=0.26x    \\nframe=   94 fps=7.9 q=-0.0 size=N/A time=00:00:03.10 bitrate=N/A speed=0.26x    \\nframe=   99 fps=7.9 q=-0.0 size=N/A time=00:00:03.26 bitrate=N/A speed=0.261x    \\nframe=  103 fps=7.9 q=-0.0 size=N/A time=00:00:03.43 bitrate=N/A speed=0.262x    \\nframe=  109 fps=7.9 q=-0.0 size=N/A time=00:00:03.60 bitrate=N/A speed=0.262x    \\nframe=  113 fps=7.9 q=-0.0 size=N/A time=00:00:03.73 bitrate=N/A speed=0.262x    \\nframe=  118 fps=7.9 q=-0.0 size=N/A time=00:00:03.90 bitrate=N/A speed=0.263x    \\nframe=  121 fps=7.9 q=-0.0 size=N/A time=00:00:04.03 bitrate=N/A speed=0.263x    \\nframe=  126 fps=7.9 q=-0.0 size=N/A time=00:00:04.16 bitrate=N/A speed=0.263x    \\nframe=  131 fps=7.9 q=-0.0 size=N/A time=00:00:04.33 bitrate=N/A speed=0.263x    \\nframe=  135 fps=7.9 q=-0.0 size=N/A time=00:00:04.46 bitrate=N/A speed=0.263x    \\nframe=  139 fps=7.9 q=-0.0 size=N/A time=00:00:04.60 bitrate=N/A speed=0.263x    \\nframe=  143 fps=7.9 q=-0.0 size=N/A time=00:00:04.76 bitrate=N/A speed=0.263x    \\nframe=  149 fps=8.0 q=-0.0 size=N/A time=00:00:04.93 bitrate=N/A speed=0.263x    \\nframe=  154 fps=8.0 q=-0.0 size=N/A time=00:00:05.10 bitrate=N/A speed=0.264x    \\nframe=  159 fps=8.0 q=-0.0 size=N/A time=00:00:05.26 bitrate=N/A speed=0.264x    \\nframe=  163 fps=8.0 q=-0.0 Lsize=N/A time=00:00:05.40 bitrate=N/A speed=0.264x    \\nvideo:76kB audio:0kB subtitle:0kB other streams:0kB global headers:0kB muxing overhead: unknown\\n[Parsed_libvmaf_0 @ 0x7fddd7a45440] VMAF score: 99.010600\\n\")\n",
      "VMAF SCORE:  99.0106\n",
      "The file at _testing/orig_scenes/factory_1080p30-Scene-019/6M_factory_1080p30-Scene-019.mp4 has been deleted.\n",
      "CURRENT BITRATE: 5\n",
      "ENCODE RESULT:  CompletedProcess(args='ffmpeg -v error -f rawvideo -vcodec rawvideo -s 1920x1080 -r 30 -pix_fmt yuv420p -i _testing/orig_scenes/factory_1080p30-Scene-019.y4m -c:v libx264 -b:v 5M -pass 1 -f null /dev/null &&                                    ffmpeg -v error -f rawvideo -vcodec rawvideo -s 1920x1080 -r 30 -pix_fmt yuv420p -i _testing/orig_scenes/factory_1080p30-Scene-019.y4m -c:v libx264 -b:v 5M -pass 2 _testing/orig_scenes/factory_1080p30-Scene-019/5M_factory_1080p30-Scene-019.mp4', returncode=0, stdout='', stderr='')\n",
      "VMAF RESULT:  CompletedProcess(args='ffmpeg -i _testing/orig_scenes/factory_1080p30-Scene-019/5M_factory_1080p30-Scene-019.mp4 -i _testing/orig_scenes/factory_1080p30-Scene-019/qp0_factory_1080p30-Scene-019.mp4 -filter_complex libvmaf -f null -', returncode=0, stdout='', stderr=\"ffmpeg version 6.0 Copyright (c) 2000-2023 the FFmpeg developers\\n  built with Apple clang version 14.0.3 (clang-1403.0.22.14.1)\\n  configuration: --prefix=/usr/local/Cellar/ffmpeg/6.0 --enable-shared --enable-pthreads --enable-version3 --cc=clang --host-cflags= --host-ldflags= --enable-ffplay --enable-gnutls --enable-gpl --enable-libaom --enable-libaribb24 --enable-libbluray --enable-libdav1d --enable-libmp3lame --enable-libopus --enable-librav1e --enable-librist --enable-librubberband --enable-libsnappy --enable-libsrt --enable-libsvtav1 --enable-libtesseract --enable-libtheora --enable-libvidstab --enable-libvmaf --enable-libvorbis --enable-libvpx --enable-libwebp --enable-libx264 --enable-libx265 --enable-libxml2 --enable-libxvid --enable-lzma --enable-libfontconfig --enable-libfreetype --enable-frei0r --enable-libass --enable-libopencore-amrnb --enable-libopencore-amrwb --enable-libopenjpeg --enable-libspeex --enable-libsoxr --enable-libzmq --enable-libzimg --disable-libjack --disable-indev=jack --enable-videotoolbox\\n  libavutil      58.  2.100 / 58.  2.100\\n  libavcodec     60.  3.100 / 60.  3.100\\n  libavformat    60.  3.100 / 60.  3.100\\n  libavdevice    60.  1.100 / 60.  1.100\\n  libavfilter     9.  3.100 /  9.  3.100\\n  libswscale      7.  1.100 /  7.  1.100\\n  libswresample   4. 10.100 /  4. 10.100\\n  libpostproc    57.  1.100 / 57.  1.100\\nInput #0, mov,mp4,m4a,3gp,3g2,mj2, from '_testing/orig_scenes/factory_1080p30-Scene-019/5M_factory_1080p30-Scene-019.mp4':\\n  Metadata:\\n    major_brand     : isom\\n    minor_version   : 512\\n    compatible_brands: isomiso2avc1mp41\\n    encoder         : Lavf60.3.100\\n  Duration: 00:00:05.43, start: 0.000000, bitrate: 5013 kb/s\\n  Stream #0:0[0x1](und): Video: h264 (High) (avc1 / 0x31637661), yuv420p(progressive), 1920x1080, 5009 kb/s, 30 fps, 30 tbr, 15360 tbn (default)\\n    Metadata:\\n      handler_name    : VideoHandler\\n      vendor_id       : [0][0][0][0]\\n      encoder         : Lavc60.3.100 libx264\\nInput #1, mov,mp4,m4a,3gp,3g2,mj2, from '_testing/orig_scenes/factory_1080p30-Scene-019/qp0_factory_1080p30-Scene-019.mp4':\\n  Metadata:\\n    major_brand     : isom\\n    minor_version   : 512\\n    compatible_brands: isomiso2avc1mp41\\n    encoder         : Lavf60.3.100\\n  Duration: 00:00:05.43, start: 0.000000, bitrate: 85825 kb/s\\n  Stream #1:0[0x1](und): Video: h264 (High 4:4:4 Predictive) (avc1 / 0x31637661), yuv420p(progressive), 1920x1080, 85822 kb/s, 30 fps, 30 tbr, 15360 tbn (default)\\n    Metadata:\\n      handler_name    : VideoHandler\\n      vendor_id       : [0][0][0][0]\\n      encoder         : Lavc60.3.100 libx264\\nStream mapping:\\n  Stream #0:0 (h264) -> libvmaf\\n  Stream #1:0 (h264) -> libvmaf\\n  libvmaf:default -> Stream #0:0 (wrapped_avframe)\\nPress [q] to stop, [?] for help\\nOutput #0, null, to 'pipe:':\\n  Metadata:\\n    major_brand     : isom\\n    minor_version   : 512\\n    compatible_brands: isomiso2avc1mp41\\n    encoder         : Lavf60.3.100\\n  Stream #0:0: Video: wrapped_avframe, yuv420p(progressive), 1920x1080, q=2-31, 200 kb/s, 30 fps, 30 tbn\\n    Metadata:\\n      encoder         : Lavc60.3.100 wrapped_avframe\\nframe=    0 fps=0.0 q=-0.0 size=       0kB time=00:00:00.00 bitrate=N/A speed=   0x    \\nframe=    4 fps=0.0 q=-0.0 size=N/A time=00:00:00.10 bitrate=N/A speed=0.145x    \\nframe=    8 fps=6.7 q=-0.0 size=N/A time=00:00:00.23 bitrate=N/A speed=0.195x    \\nframe=   13 fps=7.2 q=-0.0 size=N/A time=00:00:00.40 bitrate=N/A speed=0.221x    \\nframe=   18 fps=7.4 q=-0.0 size=N/A time=00:00:00.56 bitrate=N/A speed=0.234x    \\nframe=   23 fps=7.6 q=-0.0 size=N/A time=00:00:00.73 bitrate=N/A speed=0.243x    \\nframe=   28 fps=7.8 q=-0.0 size=N/A time=00:00:00.90 bitrate=N/A speed=0.25x    \\nframe=   33 fps=7.9 q=-0.0 size=N/A time=00:00:01.06 bitrate=N/A speed=0.256x    \\nframe=   38 fps=8.0 q=-0.0 size=N/A time=00:00:01.23 bitrate=N/A speed=0.26x    \\nframe=   43 fps=8.1 q=-0.0 size=N/A time=00:00:01.40 bitrate=N/A speed=0.263x    \\nframe=   48 fps=8.2 q=-0.0 size=N/A time=00:00:01.56 bitrate=N/A speed=0.266x    \\nframe=   53 fps=8.2 q=-0.0 size=N/A time=00:00:01.73 bitrate=N/A speed=0.269x    \\nframe=   57 fps=8.1 q=-0.0 size=N/A time=00:00:01.90 bitrate=N/A speed=0.27x    \\nframe=   62 fps=8.2 q=-0.0 size=N/A time=00:00:02.03 bitrate=N/A speed=0.27x    \\nframe=   67 fps=8.2 q=-0.0 size=N/A time=00:00:02.20 bitrate=N/A speed=0.27x    \\nframe=   71 fps=8.2 q=-0.0 size=N/A time=00:00:02.33 bitrate=N/A speed=0.269x    \\nframe=   75 fps=8.2 q=-0.0 size=N/A time=00:00:02.46 bitrate=N/A speed=0.268x    \\nframe=   79 fps=8.2 q=-0.0 size=N/A time=00:00:02.60 bitrate=N/A speed=0.268x    \\nframe=   83 fps=8.1 q=-0.0 size=N/A time=00:00:02.73 bitrate=N/A speed=0.268x    \\nframe=   87 fps=8.1 q=-0.0 size=N/A time=00:00:02.86 bitrate=N/A speed=0.268x    \\nframe=   92 fps=8.1 q=-0.0 size=N/A time=00:00:03.03 bitrate=N/A speed=0.268x    \\nframe=   97 fps=8.1 q=-0.0 size=N/A time=00:00:03.20 bitrate=N/A speed=0.268x    \\nframe=  102 fps=8.1 q=-0.0 size=N/A time=00:00:03.36 bitrate=N/A speed=0.269x    \\nframe=  107 fps=8.1 q=-0.0 size=N/A time=00:00:03.53 bitrate=N/A speed=0.269x    \\nframe=  112 fps=8.1 q=-0.0 size=N/A time=00:00:03.70 bitrate=N/A speed=0.269x    \\nframe=  116 fps=8.1 q=-0.0 size=N/A time=00:00:03.86 bitrate=N/A speed=0.271x    \\nframe=  120 fps=8.1 q=-0.0 size=N/A time=00:00:03.96 bitrate=N/A speed=0.269x    \\nframe=  125 fps=8.1 q=-0.0 size=N/A time=00:00:04.13 bitrate=N/A speed=0.269x    \\nframe=  128 fps=8.0 q=-0.0 size=N/A time=00:00:04.26 bitrate=N/A speed=0.268x    \\nframe=  133 fps=8.1 q=-0.0 size=N/A time=00:00:04.40 bitrate=N/A speed=0.268x    \\nframe=  138 fps=8.1 q=-0.0 size=N/A time=00:00:04.56 bitrate=N/A speed=0.268x    \\nframe=  142 fps=8.1 q=-0.0 size=N/A time=00:00:04.70 bitrate=N/A speed=0.268x    \\nframe=  146 fps=8.1 q=-0.0 size=N/A time=00:00:04.83 bitrate=N/A speed=0.268x    \\nframe=  151 fps=8.1 q=-0.0 size=N/A time=00:00:05.00 bitrate=N/A speed=0.268x    \\nframe=  156 fps=8.1 q=-0.0 size=N/A time=00:00:05.16 bitrate=N/A speed=0.268x    \\nframe=  160 fps=8.0 q=-0.0 size=N/A time=00:00:05.33 bitrate=N/A speed=0.268x    \\nframe=  163 fps=8.1 q=-0.0 Lsize=N/A time=00:00:05.40 bitrate=N/A speed=0.268x    \\nvideo:76kB audio:0kB subtitle:0kB other streams:0kB global headers:0kB muxing overhead: unknown\\n[Parsed_libvmaf_0 @ 0x7ff4e7509fc0] VMAF score: 98.587878\\n\")\n",
      "VMAF SCORE:  98.587878\n",
      "The file at _testing/orig_scenes/factory_1080p30-Scene-019/5M_factory_1080p30-Scene-019.mp4 has been deleted.\n",
      "CONVERGED: CURRENT VMAF IS OPTIMAL. current vmaf_score: 98.587878 vs last_upper_candidate_vmaf: 99.0106\n",
      "FINAL BITRATE LABEL FOR FILE factory_1080p30-Scene-019.y4m: 5\n",
      "The file at _testing/orig_scenes/factory_1080p30-Scene-019/qp0_factory_1080p30-Scene-019.mp4 has been deleted.\n",
      "ERROR DID NOT FIND OPTIMAL BITRATE\n",
      "QP0 RESULT:  CompletedProcess(args='ffmpeg -v error -f rawvideo -vcodec rawvideo -s 1920x1080 -r 30 -pix_fmt yuv420p -i _testing/orig_scenes/factory_1080p30-Scene-018.y4m -c:v libx264 -qp 0 _testing/orig_scenes/factory_1080p30-Scene-018/qp0_factory_1080p30-Scene-018.mp4', returncode=0, stdout='', stderr='')\n",
      "CURRENT BITRATE: 32\n",
      "ENCODE RESULT:  CompletedProcess(args='ffmpeg -v error -f rawvideo -vcodec rawvideo -s 1920x1080 -r 30 -pix_fmt yuv420p -i _testing/orig_scenes/factory_1080p30-Scene-018.y4m -c:v libx264 -b:v 32M -pass 1 -f null /dev/null &&                                    ffmpeg -v error -f rawvideo -vcodec rawvideo -s 1920x1080 -r 30 -pix_fmt yuv420p -i _testing/orig_scenes/factory_1080p30-Scene-018.y4m -c:v libx264 -b:v 32M -pass 2 _testing/orig_scenes/factory_1080p30-Scene-018/32M_factory_1080p30-Scene-018.mp4', returncode=0, stdout='', stderr='')\n"
     ]
    },
    {
     "ename": "KeyboardInterrupt",
     "evalue": "",
     "output_type": "error",
     "traceback": [
      "\u001b[0;31m---------------------------------------------------------------------------\u001b[0m",
      "\u001b[0;31mKeyboardInterrupt\u001b[0m                         Traceback (most recent call last)",
      "\u001b[0;32m<ipython-input-52-6dfc76b83ad0>\u001b[0m in \u001b[0;36m<module>\u001b[0;34m\u001b[0m\n\u001b[1;32m     93\u001b[0m         \u001b[0mprint\u001b[0m\u001b[0;34m(\u001b[0m\u001b[0;34m'ERROR DID NOT FIND OPTIMAL BITRATE'\u001b[0m\u001b[0;34m)\u001b[0m\u001b[0;34m\u001b[0m\u001b[0;34m\u001b[0m\u001b[0m\n\u001b[1;32m     94\u001b[0m \u001b[0;34m\u001b[0m\u001b[0m\n\u001b[0;32m---> 95\u001b[0;31m \u001b[0mtest_encode\u001b[0m\u001b[0;34m(\u001b[0m\u001b[0morig_scenes_loc\u001b[0m\u001b[0;34m)\u001b[0m\u001b[0;34m\u001b[0m\u001b[0;34m\u001b[0m\u001b[0m\n\u001b[0m\u001b[1;32m     96\u001b[0m \u001b[0;34m\u001b[0m\u001b[0m\n\u001b[1;32m     97\u001b[0m \u001b[0;34m\u001b[0m\u001b[0m\n",
      "\u001b[0;32m<ipython-input-52-6dfc76b83ad0>\u001b[0m in \u001b[0;36mtest_encode\u001b[0;34m(directory)\u001b[0m\n\u001b[1;32m     40\u001b[0m             \u001b[0;31m# calc vmaf\u001b[0m\u001b[0;34m\u001b[0m\u001b[0;34m\u001b[0m\u001b[0;34m\u001b[0m\u001b[0m\n\u001b[1;32m     41\u001b[0m             \u001b[0mvmaf_command\u001b[0m \u001b[0;34m=\u001b[0m \u001b[0;34mf'ffmpeg -i {encoded_filename} -i {qp0_filename} -filter_complex libvmaf -f null -'\u001b[0m\u001b[0;34m\u001b[0m\u001b[0;34m\u001b[0m\u001b[0m\n\u001b[0;32m---> 42\u001b[0;31m             \u001b[0mvmaf_result\u001b[0m \u001b[0;34m=\u001b[0m \u001b[0msubprocess\u001b[0m\u001b[0;34m.\u001b[0m\u001b[0mrun\u001b[0m\u001b[0;34m(\u001b[0m\u001b[0mvmaf_command\u001b[0m\u001b[0;34m,\u001b[0m \u001b[0mcapture_output\u001b[0m\u001b[0;34m=\u001b[0m\u001b[0;32mTrue\u001b[0m\u001b[0;34m,\u001b[0m \u001b[0mtext\u001b[0m\u001b[0;34m=\u001b[0m\u001b[0;32mTrue\u001b[0m\u001b[0;34m,\u001b[0m \u001b[0mshell\u001b[0m\u001b[0;34m=\u001b[0m\u001b[0;32mTrue\u001b[0m\u001b[0;34m)\u001b[0m\u001b[0;34m\u001b[0m\u001b[0;34m\u001b[0m\u001b[0m\n\u001b[0m\u001b[1;32m     43\u001b[0m             \u001b[0mprint\u001b[0m\u001b[0;34m(\u001b[0m\u001b[0;34m'VMAF RESULT: '\u001b[0m\u001b[0;34m,\u001b[0m \u001b[0mvmaf_result\u001b[0m\u001b[0;34m)\u001b[0m\u001b[0;34m\u001b[0m\u001b[0;34m\u001b[0m\u001b[0m\n\u001b[1;32m     44\u001b[0m \u001b[0;34m\u001b[0m\u001b[0m\n",
      "\u001b[0;32m/Library/Developer/CommandLineTools/Library/Frameworks/Python3.framework/Versions/3.7/lib/python3.7/subprocess.py\u001b[0m in \u001b[0;36mrun\u001b[0;34m(input, capture_output, timeout, check, *popenargs, **kwargs)\u001b[0m\n\u001b[1;32m    472\u001b[0m     \u001b[0;32mwith\u001b[0m \u001b[0mPopen\u001b[0m\u001b[0;34m(\u001b[0m\u001b[0;34m*\u001b[0m\u001b[0mpopenargs\u001b[0m\u001b[0;34m,\u001b[0m \u001b[0;34m**\u001b[0m\u001b[0mkwargs\u001b[0m\u001b[0;34m)\u001b[0m \u001b[0;32mas\u001b[0m \u001b[0mprocess\u001b[0m\u001b[0;34m:\u001b[0m\u001b[0;34m\u001b[0m\u001b[0;34m\u001b[0m\u001b[0m\n\u001b[1;32m    473\u001b[0m         \u001b[0;32mtry\u001b[0m\u001b[0;34m:\u001b[0m\u001b[0;34m\u001b[0m\u001b[0;34m\u001b[0m\u001b[0m\n\u001b[0;32m--> 474\u001b[0;31m             \u001b[0mstdout\u001b[0m\u001b[0;34m,\u001b[0m \u001b[0mstderr\u001b[0m \u001b[0;34m=\u001b[0m \u001b[0mprocess\u001b[0m\u001b[0;34m.\u001b[0m\u001b[0mcommunicate\u001b[0m\u001b[0;34m(\u001b[0m\u001b[0minput\u001b[0m\u001b[0;34m,\u001b[0m \u001b[0mtimeout\u001b[0m\u001b[0;34m=\u001b[0m\u001b[0mtimeout\u001b[0m\u001b[0;34m)\u001b[0m\u001b[0;34m\u001b[0m\u001b[0;34m\u001b[0m\u001b[0m\n\u001b[0m\u001b[1;32m    475\u001b[0m         \u001b[0;32mexcept\u001b[0m \u001b[0mTimeoutExpired\u001b[0m\u001b[0;34m:\u001b[0m\u001b[0;34m\u001b[0m\u001b[0;34m\u001b[0m\u001b[0m\n\u001b[1;32m    476\u001b[0m             \u001b[0mprocess\u001b[0m\u001b[0;34m.\u001b[0m\u001b[0mkill\u001b[0m\u001b[0;34m(\u001b[0m\u001b[0;34m)\u001b[0m\u001b[0;34m\u001b[0m\u001b[0;34m\u001b[0m\u001b[0m\n",
      "\u001b[0;32m/Library/Developer/CommandLineTools/Library/Frameworks/Python3.framework/Versions/3.7/lib/python3.7/subprocess.py\u001b[0m in \u001b[0;36mcommunicate\u001b[0;34m(self, input, timeout)\u001b[0m\n\u001b[1;32m    937\u001b[0m \u001b[0;34m\u001b[0m\u001b[0m\n\u001b[1;32m    938\u001b[0m             \u001b[0;32mtry\u001b[0m\u001b[0;34m:\u001b[0m\u001b[0;34m\u001b[0m\u001b[0;34m\u001b[0m\u001b[0m\n\u001b[0;32m--> 939\u001b[0;31m                 \u001b[0mstdout\u001b[0m\u001b[0;34m,\u001b[0m \u001b[0mstderr\u001b[0m \u001b[0;34m=\u001b[0m \u001b[0mself\u001b[0m\u001b[0;34m.\u001b[0m\u001b[0m_communicate\u001b[0m\u001b[0;34m(\u001b[0m\u001b[0minput\u001b[0m\u001b[0;34m,\u001b[0m \u001b[0mendtime\u001b[0m\u001b[0;34m,\u001b[0m \u001b[0mtimeout\u001b[0m\u001b[0;34m)\u001b[0m\u001b[0;34m\u001b[0m\u001b[0;34m\u001b[0m\u001b[0m\n\u001b[0m\u001b[1;32m    940\u001b[0m             \u001b[0;32mexcept\u001b[0m \u001b[0mKeyboardInterrupt\u001b[0m\u001b[0;34m:\u001b[0m\u001b[0;34m\u001b[0m\u001b[0;34m\u001b[0m\u001b[0m\n\u001b[1;32m    941\u001b[0m                 \u001b[0;31m# https://bugs.python.org/issue25942\u001b[0m\u001b[0;34m\u001b[0m\u001b[0;34m\u001b[0m\u001b[0;34m\u001b[0m\u001b[0m\n",
      "\u001b[0;32m/Library/Developer/CommandLineTools/Library/Frameworks/Python3.framework/Versions/3.7/lib/python3.7/subprocess.py\u001b[0m in \u001b[0;36m_communicate\u001b[0;34m(self, input, endtime, orig_timeout)\u001b[0m\n\u001b[1;32m   1679\u001b[0m                         \u001b[0;32mraise\u001b[0m \u001b[0mTimeoutExpired\u001b[0m\u001b[0;34m(\u001b[0m\u001b[0mself\u001b[0m\u001b[0;34m.\u001b[0m\u001b[0margs\u001b[0m\u001b[0;34m,\u001b[0m \u001b[0morig_timeout\u001b[0m\u001b[0;34m)\u001b[0m\u001b[0;34m\u001b[0m\u001b[0;34m\u001b[0m\u001b[0m\n\u001b[1;32m   1680\u001b[0m \u001b[0;34m\u001b[0m\u001b[0m\n\u001b[0;32m-> 1681\u001b[0;31m                     \u001b[0mready\u001b[0m \u001b[0;34m=\u001b[0m \u001b[0mselector\u001b[0m\u001b[0;34m.\u001b[0m\u001b[0mselect\u001b[0m\u001b[0;34m(\u001b[0m\u001b[0mtimeout\u001b[0m\u001b[0;34m)\u001b[0m\u001b[0;34m\u001b[0m\u001b[0;34m\u001b[0m\u001b[0m\n\u001b[0m\u001b[1;32m   1682\u001b[0m                     \u001b[0mself\u001b[0m\u001b[0;34m.\u001b[0m\u001b[0m_check_timeout\u001b[0m\u001b[0;34m(\u001b[0m\u001b[0mendtime\u001b[0m\u001b[0;34m,\u001b[0m \u001b[0morig_timeout\u001b[0m\u001b[0;34m)\u001b[0m\u001b[0;34m\u001b[0m\u001b[0;34m\u001b[0m\u001b[0m\n\u001b[1;32m   1683\u001b[0m \u001b[0;34m\u001b[0m\u001b[0m\n",
      "\u001b[0;32m/Library/Developer/CommandLineTools/Library/Frameworks/Python3.framework/Versions/3.7/lib/python3.7/selectors.py\u001b[0m in \u001b[0;36mselect\u001b[0;34m(self, timeout)\u001b[0m\n\u001b[1;32m    413\u001b[0m         \u001b[0mready\u001b[0m \u001b[0;34m=\u001b[0m \u001b[0;34m[\u001b[0m\u001b[0;34m]\u001b[0m\u001b[0;34m\u001b[0m\u001b[0;34m\u001b[0m\u001b[0m\n\u001b[1;32m    414\u001b[0m         \u001b[0;32mtry\u001b[0m\u001b[0;34m:\u001b[0m\u001b[0;34m\u001b[0m\u001b[0;34m\u001b[0m\u001b[0m\n\u001b[0;32m--> 415\u001b[0;31m             \u001b[0mfd_event_list\u001b[0m \u001b[0;34m=\u001b[0m \u001b[0mself\u001b[0m\u001b[0;34m.\u001b[0m\u001b[0m_selector\u001b[0m\u001b[0;34m.\u001b[0m\u001b[0mpoll\u001b[0m\u001b[0;34m(\u001b[0m\u001b[0mtimeout\u001b[0m\u001b[0;34m)\u001b[0m\u001b[0;34m\u001b[0m\u001b[0;34m\u001b[0m\u001b[0m\n\u001b[0m\u001b[1;32m    416\u001b[0m         \u001b[0;32mexcept\u001b[0m \u001b[0mInterruptedError\u001b[0m\u001b[0;34m:\u001b[0m\u001b[0;34m\u001b[0m\u001b[0;34m\u001b[0m\u001b[0m\n\u001b[1;32m    417\u001b[0m             \u001b[0;32mreturn\u001b[0m \u001b[0mready\u001b[0m\u001b[0;34m\u001b[0m\u001b[0;34m\u001b[0m\u001b[0m\n",
      "\u001b[0;31mKeyboardInterrupt\u001b[0m: "
     ]
    }
   ],
   "source": [
    "# test encode\n",
    "\n",
    "def test_encode(directory):\n",
    "    for filename in os.listdir(directory):\n",
    "\n",
    "        #new dir per scene/filename\n",
    "        new_dir_name=os.path.splitext(filename)[0]\n",
    "        dir_path = os.path.join(directory, new_dir_name)\n",
    "        os.makedirs(dir_path)\n",
    "\n",
    "        #do qp0 encode\n",
    "        qp0_filename = f'{dir_path}/qp0_{new_dir_name}.mp4'\n",
    "        qp0_command = f'ffmpeg -v error -f rawvideo -vcodec rawvideo -s {input_vid_res} -r {input_vid_fps} -pix_fmt {input_vid_pix_fmt} -i {orig_scenes_loc}/{filename} -c:v libx264 -qp 0 {qp0_filename}'\n",
    "        qp0_result = subprocess.run(qp0_command, capture_output=True, text=True, shell=True)\n",
    "        print('QP0 RESULT: ', qp0_result)\n",
    "\n",
    "        #init binar search\n",
    "        low = 0\n",
    "        high = len(bitrate_candidates) - 1\n",
    "        mid = 0\n",
    " \n",
    "        #iterations for binary search\n",
    "        iterations=math.floor(math.log2(len(bitrate_candidates)))\n",
    "\n",
    "        #BINARY SEARCH OVER BITRATES\n",
    "        while range(iterations):\n",
    "\n",
    "            mid = (high + low) // 2\n",
    "\n",
    "            current_bitrate=bitrate_candidates[mid]\n",
    "            print(f'CURRENT BITRATE: {current_bitrate}')\n",
    "\n",
    "            #do encode\n",
    "            encoded_filename = f'{dir_path}/{current_bitrate}M_{new_dir_name}.mp4'\n",
    "            encode_command = f'ffmpeg -v error -f rawvideo -vcodec rawvideo -s {input_vid_res} -r {input_vid_fps} -pix_fmt {input_vid_pix_fmt} -i {orig_scenes_loc}/{filename} -c:v libx264 -b:v {current_bitrate}M -pass 1 -f null /dev/null &&    \\\n",
    "                                ffmpeg -v error -f rawvideo -vcodec rawvideo -s {input_vid_res} -r {input_vid_fps} -pix_fmt {input_vid_pix_fmt} -i {orig_scenes_loc}/{filename} -c:v libx264 -b:v {current_bitrate}M -pass 2 {encoded_filename}'\n",
    "            encode_result = subprocess.run(encode_command, capture_output=True, text=True, shell=True)\n",
    "            print('ENCODE RESULT: ', encode_result)\n",
    "\n",
    "            # calc vmaf\n",
    "            vmaf_command = f'ffmpeg -i {encoded_filename} -i {qp0_filename} -filter_complex libvmaf -f null -'\n",
    "            vmaf_result = subprocess.run(vmaf_command, capture_output=True, text=True, shell=True)\n",
    "            print('VMAF RESULT: ', vmaf_result)\n",
    "\n",
    "            vmaf_score=extract_vmaf(str(vmaf_result))\n",
    "            print('VMAF SCORE: ', vmaf_score)\n",
    "            \n",
    "            #delete encode\n",
    "            delete_encode(encoded_filename)\n",
    "\n",
    "            # final iteration\n",
    "            if low == high: # TODO check if always converges\n",
    "                \n",
    "                if vmaf_score > last_upper_candidate_vmaf or vmaf_score < minimum_acceptable_vmaf:\n",
    "                    print(f'CONVERGED: LAST UPPERCANDIDATE IS OPTIMAL. current vmaf_score: {vmaf_score} vs last_upper_candidate_vmaf: {last_upper_candidate_vmaf}')\n",
    "                    print(f'FINAL BITRATE LABEL FOR FILE {filename}: {last_upper_candidate}')\n",
    "                \n",
    "                elif vmaf_score < last_upper_candidate_vmaf and vmaf_score > minimum_acceptable_vmaf:\n",
    "                    print(f'CONVERGED: CURRENT VMAF IS OPTIMAL. current vmaf_score: {vmaf_score} vs last_upper_candidate_vmaf: {last_upper_candidate_vmaf}')\n",
    "                    print(f'FINAL BITRATE LABEL FOR FILE {filename}: {current_bitrate}')\n",
    "\n",
    "                else:\n",
    "                    print('ERROR DID NOT FIND OPTIMAL BITRATE')\n",
    "\n",
    "                #delete qp0 encode\n",
    "                delete_encode(qp0_filename)\n",
    "\n",
    "                #delete scene dir\n",
    "                os.rmdir(dir_path)\n",
    "\n",
    "                break\n",
    " \n",
    "            elif vmaf_score < minimum_acceptable_vmaf:\n",
    "                low = mid + 1\n",
    "        \n",
    "            elif vmaf_score > minimum_acceptable_vmaf:\n",
    "                high = mid - 1\n",
    "                last_upper_candidate=current_bitrate\n",
    "                last_upper_candidate_vmaf=vmaf_score\n",
    "            \n",
    "            else:\n",
    "                print('ERROR DID NOT FIND OPTIMAL BITRATE')\n",
    "                \n",
    "            \n",
    "test_encode(orig_scenes_loc)\n",
    "\n"
   ]
  }
 ],
 "metadata": {
  "kernelspec": {
   "display_name": "PyCharm (source)",
   "language": "python",
   "name": "pycharm-461af8c0"
  },
  "language_info": {
   "codemirror_mode": {
    "name": "ipython",
    "version": 3
   },
   "file_extension": ".py",
   "mimetype": "text/x-python",
   "name": "python",
   "nbconvert_exporter": "python",
   "pygments_lexer": "ipython3",
   "version": "3.7.3"
  },
  "orig_nbformat": 4
 },
 "nbformat": 4,
 "nbformat_minor": 2
}
